<?xml version="1.0" encoding="UTF-8"?>
<svg xmlns="http://www.w3.org/2000/svg" xmlns:xlink="http://www.w3.org/1999/xlink" width="75pt" height="75pt" viewBox="0 0 75 75" version="1.1">
<g id="surface1">
<path style=" stroke:none;fill-rule:nonzero;fill:rgb(0%,0%,0%);fill-opacity:1;" d="M 69.898438 19.574219 C 66.546875 13.835938 62.003906 9.289062 56.265625 5.941406 C 50.523438 2.589844 44.257812 0.917969 37.460938 0.917969 C 30.664062 0.917969 24.394531 2.589844 18.65625 5.941406 C 12.917969 9.289062 8.375 13.835938 5.023438 19.574219 C 1.675781 25.3125 0 31.582031 0 38.375 C 0 46.539062 2.382812 53.878906 7.144531 60.398438 C 11.910156 66.917969 18.0625 71.429688 25.609375 73.933594 C 26.484375 74.097656 27.136719 73.984375 27.558594 73.59375 C 27.980469 73.203125 28.191406 72.714844 28.191406 72.128906 C 28.191406 72.03125 28.183594 71.15625 28.167969 69.496094 C 28.152344 67.839844 28.144531 66.390625 28.144531 65.15625 L 27.019531 65.351562 C 26.304688 65.480469 25.402344 65.535156 24.3125 65.519531 C 23.226562 65.507812 22.09375 65.390625 20.925781 65.179688 C 19.753906 64.96875 18.664062 64.480469 17.65625 63.71875 C 16.648438 62.953125 15.933594 61.953125 15.511719 60.71875 L 15.023438 59.597656 C 14.699219 58.847656 14.1875 58.019531 13.488281 57.109375 C 12.785156 56.199219 12.078125 55.582031 11.363281 55.253906 L 11.023438 55.011719 C 10.796875 54.847656 10.585938 54.652344 10.390625 54.425781 C 10.195312 54.199219 10.046875 53.96875 9.949219 53.742188 C 9.851562 53.515625 9.933594 53.328125 10.195312 53.179688 C 10.453125 53.035156 10.925781 52.960938 11.609375 52.960938 L 12.582031 53.109375 C 13.234375 53.238281 14.039062 53.628906 15 54.277344 C 15.957031 54.929688 16.746094 55.773438 17.363281 56.8125 C 18.113281 58.148438 19.015625 59.164062 20.070312 59.863281 C 21.128906 60.5625 22.191406 60.910156 23.265625 60.910156 C 24.339844 60.910156 25.265625 60.828125 26.046875 60.667969 C 26.824219 60.503906 27.558594 60.261719 28.242188 59.9375 C 28.535156 57.757812 29.332031 56.082031 30.628906 54.910156 C 28.777344 54.71875 27.109375 54.421875 25.632812 54.035156 C 24.152344 53.644531 22.625 53.007812 21.046875 52.128906 C 19.46875 51.253906 18.160156 50.164062 17.121094 48.863281 C 16.078125 47.5625 15.226562 45.855469 14.558594 43.742188 C 13.894531 41.628906 13.558594 39.1875 13.558594 36.425781 C 13.558594 32.488281 14.84375 29.140625 17.414062 26.375 C 16.210938 23.417969 16.324219 20.101562 17.753906 16.425781 C 18.699219 16.132812 20.097656 16.351562 21.949219 17.085938 C 23.804688 17.816406 25.160156 18.441406 26.023438 18.960938 C 26.882812 19.480469 27.574219 19.921875 28.09375 20.28125 C 31.121094 19.433594 34.242188 19.011719 37.460938 19.011719 C 40.679688 19.011719 43.800781 19.433594 46.828125 20.28125 L 48.679688 19.109375 C 49.949219 18.328125 51.445312 17.613281 53.167969 16.960938 C 54.890625 16.3125 56.207031 16.132812 57.117188 16.425781 C 58.582031 20.101562 58.710938 23.417969 57.507812 26.375 C 60.078125 29.140625 61.363281 32.492188 61.363281 36.425781 C 61.363281 39.1875 61.027344 41.636719 60.363281 43.765625 C 59.695312 45.894531 58.835938 47.601562 57.777344 48.886719 C 56.722656 50.171875 55.402344 51.253906 53.828125 52.128906 C 52.25 53.007812 50.71875 53.644531 49.242188 54.035156 C 47.761719 54.425781 46.09375 54.71875 44.242188 54.914062 C 45.933594 56.375 46.777344 58.683594 46.777344 61.839844 L 46.777344 72.128906 C 46.777344 72.714844 46.980469 73.203125 47.386719 73.59375 C 47.792969 73.980469 48.4375 74.097656 49.3125 73.933594 C 56.859375 71.429688 63.011719 66.917969 67.777344 60.398438 C 72.539062 53.878906 74.921875 46.539062 74.921875 38.375 C 74.921875 31.582031 73.246094 25.3125 69.898438 19.574219 Z M 69.898438 19.574219 "/>
</g>
</svg>
