<?xml version="1.0" encoding="UTF-8"?>
<svg xmlns="http://www.w3.org/2000/svg" xmlns:xlink="http://www.w3.org/1999/xlink" width="150pt" height="150pt" viewBox="0 0 150 150" version="1.1">
<g id="surface1">
<path style=" stroke:none;fill-rule:nonzero;fill:rgb(0%,0%,0%);fill-opacity:1;" d="M 139.425781 39.042969 C 132.738281 27.597656 123.679688 18.527344 112.230469 11.851562 C 100.777344 5.164062 88.28125 1.832031 74.722656 1.832031 C 61.164062 1.832031 48.660156 5.164062 37.214844 11.851562 C 25.765625 18.527344 16.707031 27.597656 10.019531 39.042969 C 3.34375 50.492188 0 62.996094 0 76.546875 C 0 92.832031 4.753906 107.472656 14.25 120.476562 C 23.757812 133.480469 36.027344 142.480469 51.082031 147.472656 C 52.828125 147.800781 54.128906 147.574219 54.96875 146.796875 C 55.8125 146.015625 56.234375 145.042969 56.234375 143.875 C 56.234375 143.679688 56.21875 141.933594 56.1875 138.621094 C 56.15625 135.320312 56.140625 132.429688 56.140625 129.964844 L 53.894531 130.355469 C 52.46875 130.613281 50.667969 130.722656 48.496094 130.691406 C 46.328125 130.667969 44.070312 130.433594 41.742188 130.011719 C 39.402344 129.59375 37.230469 128.617188 35.21875 127.097656 C 33.207031 125.570312 31.78125 123.578125 30.941406 121.113281 L 29.96875 118.878906 C 29.320312 117.382812 28.300781 115.730469 26.90625 113.914062 C 25.503906 112.097656 24.09375 110.867188 22.667969 110.214844 L 21.988281 109.730469 C 21.535156 109.402344 21.117188 109.015625 20.726562 108.5625 C 20.335938 108.109375 20.039062 107.652344 19.84375 107.199219 C 19.652344 106.746094 19.8125 106.371094 20.335938 106.078125 C 20.851562 105.789062 21.792969 105.640625 23.15625 105.640625 L 25.097656 105.9375 C 26.398438 106.195312 28.003906 106.972656 29.921875 108.265625 C 31.828125 109.566406 33.402344 111.25 34.632812 113.324219 C 36.128906 115.988281 37.929688 118.011719 40.035156 119.40625 C 42.144531 120.804688 44.265625 121.496094 46.40625 121.496094 C 48.550781 121.496094 50.398438 121.332031 51.957031 121.011719 C 53.503906 120.6875 54.96875 120.203125 56.335938 119.554688 C 56.917969 115.207031 58.507812 111.867188 61.09375 109.527344 C 57.402344 109.144531 54.074219 108.554688 51.128906 107.78125 C 48.175781 107.003906 45.128906 105.734375 41.980469 103.980469 C 38.832031 102.234375 36.222656 100.0625 34.152344 97.464844 C 32.070312 94.871094 30.371094 91.46875 29.039062 87.25 C 27.714844 83.035156 27.046875 78.167969 27.046875 72.65625 C 27.046875 64.804688 29.609375 58.125 34.734375 52.609375 C 32.335938 46.710938 32.5625 40.097656 35.414062 32.765625 C 37.300781 32.179688 40.089844 32.617188 43.78125 34.082031 C 47.484375 35.539062 50.1875 36.785156 51.910156 37.820312 C 53.621094 38.855469 55 39.738281 56.039062 40.453125 C 62.078125 38.765625 68.300781 37.921875 74.722656 37.921875 C 81.144531 37.921875 87.367188 38.765625 93.40625 40.453125 L 97.101562 38.117188 C 99.632812 36.558594 102.617188 35.132812 106.054688 33.832031 C 109.488281 32.539062 112.113281 32.179688 113.929688 32.765625 C 116.851562 40.097656 117.109375 46.710938 114.710938 52.609375 C 119.835938 58.125 122.398438 64.8125 122.398438 72.65625 C 122.398438 78.167969 121.730469 83.050781 120.40625 87.296875 C 119.074219 91.546875 117.359375 94.949219 115.246094 97.511719 C 113.144531 100.078125 110.511719 102.234375 107.371094 103.980469 C 104.222656 105.734375 101.167969 107.003906 98.222656 107.78125 C 95.269531 108.5625 91.941406 109.144531 88.25 109.535156 C 91.621094 112.449219 93.304688 117.054688 93.304688 123.351562 L 93.304688 143.875 C 93.304688 145.042969 93.710938 146.015625 94.519531 146.796875 C 95.332031 147.566406 96.617188 147.800781 98.363281 147.472656 C 113.417969 142.480469 125.6875 133.480469 135.195312 120.476562 C 144.691406 107.472656 149.445312 92.832031 149.445312 76.546875 C 149.445312 62.996094 146.101562 50.492188 139.425781 39.042969 Z M 139.425781 39.042969 "/>
</g>
</svg>
